<mxfile host="app.diagrams.net" modified="2021-12-24T00:41:11.958Z" agent="5.0 (Macintosh; Intel Mac OS X 10_15_7) AppleWebKit/537.36 (KHTML, like Gecko) Chrome/96.0.4664.110 Safari/537.36" etag="MqqDPBz-Wg77CKD9_mFb" version="15.7.3" type="github">
  <diagram id="SXHMLK9uMxRXUeJo-ayq" name="master">
    <mxGraphModel dx="1692" dy="1827" grid="1" gridSize="10" guides="1" tooltips="1" connect="1" arrows="1" fold="1" page="1" pageScale="1" pageWidth="827" pageHeight="1169" math="0" shadow="0">
      <root>
        <mxCell id="0" />
        <mxCell id="1" parent="0" />
        <mxCell id="09r9EQtUMxs82mxPDeLm-19" style="edgeStyle=orthogonalEdgeStyle;rounded=0;orthogonalLoop=1;jettySize=auto;html=1;exitX=1;exitY=0.5;exitDx=0;exitDy=0;entryX=0;entryY=0.5;entryDx=0;entryDy=0;startArrow=none;startFill=0;endArrow=none;endFill=0;fillColor=#d5e8d4;strokeColor=#82b366;" edge="1" parent="1" source="09r9EQtUMxs82mxPDeLm-4" target="09r9EQtUMxs82mxPDeLm-18">
          <mxGeometry relative="1" as="geometry" />
        </mxCell>
        <mxCell id="09r9EQtUMxs82mxPDeLm-4" value="filereader" style="rounded=0;whiteSpace=wrap;html=1;strokeWidth=4;fillColor=#dae8fc;strokeColor=#6c8ebf;" vertex="1" parent="1">
          <mxGeometry x="190" y="203.75" width="120" height="112.5" as="geometry" />
        </mxCell>
        <mxCell id="09r9EQtUMxs82mxPDeLm-6" value="audio file&lt;br&gt;(wav,mp3)" style="shape=note;whiteSpace=wrap;html=1;backgroundOutline=1;darkOpacity=0.05;" vertex="1" parent="1">
          <mxGeometry x="-100" y="210" width="80" height="100" as="geometry" />
        </mxCell>
        <mxCell id="09r9EQtUMxs82mxPDeLm-11" value="directory" style="rounded=0;whiteSpace=wrap;html=1;" vertex="1" parent="1">
          <mxGeometry x="-120" y="20" width="120" height="85" as="geometry" />
        </mxCell>
        <mxCell id="09r9EQtUMxs82mxPDeLm-14" style="edgeStyle=orthogonalEdgeStyle;rounded=0;orthogonalLoop=1;jettySize=auto;html=1;exitX=0.5;exitY=1;exitDx=0;exitDy=0;entryX=0.5;entryY=0;entryDx=0;entryDy=0;entryPerimeter=0;startArrow=none;startFill=0;endArrow=ERoneToMany;endFill=0;" edge="1" parent="1" source="09r9EQtUMxs82mxPDeLm-12" target="09r9EQtUMxs82mxPDeLm-6">
          <mxGeometry relative="1" as="geometry" />
        </mxCell>
        <mxCell id="09r9EQtUMxs82mxPDeLm-12" value="folder" style="rounded=0;whiteSpace=wrap;html=1;" vertex="1" parent="1">
          <mxGeometry x="-120" y="130" width="120" height="50" as="geometry" />
        </mxCell>
        <mxCell id="09r9EQtUMxs82mxPDeLm-15" style="edgeStyle=orthogonalEdgeStyle;rounded=0;orthogonalLoop=1;jettySize=auto;html=1;exitX=0.5;exitY=1;exitDx=0;exitDy=0;entryX=0.5;entryY=0;entryDx=0;entryDy=0;startArrow=none;startFill=0;endArrow=ERoneToMany;endFill=0;" edge="1" parent="1" source="09r9EQtUMxs82mxPDeLm-11" target="09r9EQtUMxs82mxPDeLm-12">
          <mxGeometry relative="1" as="geometry" />
        </mxCell>
        <mxCell id="09r9EQtUMxs82mxPDeLm-16" value="" style="shape=flexArrow;endArrow=classic;html=1;rounded=0;exitX=1;exitY=0.5;exitDx=0;exitDy=0;entryX=0;entryY=0;entryDx=0;entryDy=0;fillColor=#ffe6cc;strokeColor=#d79b00;" edge="1" parent="1" source="09r9EQtUMxs82mxPDeLm-11" target="09r9EQtUMxs82mxPDeLm-4">
          <mxGeometry width="50" height="50" relative="1" as="geometry">
            <mxPoint x="260" y="250" as="sourcePoint" />
            <mxPoint x="310" y="200" as="targetPoint" />
          </mxGeometry>
        </mxCell>
        <mxCell id="09r9EQtUMxs82mxPDeLm-17" value="input" style="edgeLabel;html=1;align=center;verticalAlign=middle;resizable=0;points=[];" vertex="1" connectable="0" parent="09r9EQtUMxs82mxPDeLm-16">
          <mxGeometry x="0.0344" y="4" relative="1" as="geometry">
            <mxPoint as="offset" />
          </mxGeometry>
        </mxCell>
        <mxCell id="09r9EQtUMxs82mxPDeLm-20" style="edgeStyle=orthogonalEdgeStyle;rounded=0;orthogonalLoop=1;jettySize=auto;html=1;exitX=1;exitY=0.5;exitDx=0;exitDy=0;startArrow=none;startFill=0;endArrow=none;endFill=0;fillColor=#d5e8d4;strokeColor=#82b366;" edge="1" parent="1" source="09r9EQtUMxs82mxPDeLm-18">
          <mxGeometry relative="1" as="geometry">
            <mxPoint x="510" y="260" as="targetPoint" />
          </mxGeometry>
        </mxCell>
        <mxCell id="09r9EQtUMxs82mxPDeLm-18" value="important&lt;br&gt;data" style="rhombus;whiteSpace=wrap;html=1;strokeWidth=1;fillColor=#d5e8d4;strokeColor=#82b366;" vertex="1" parent="1">
          <mxGeometry x="370" y="220" width="80" height="80" as="geometry" />
        </mxCell>
        <mxCell id="09r9EQtUMxs82mxPDeLm-21" value="????" style="rounded=0;whiteSpace=wrap;html=1;strokeWidth=4;fillColor=#dae8fc;strokeColor=#6c8ebf;" vertex="1" parent="1">
          <mxGeometry x="510" y="200" width="120" height="116.25" as="geometry" />
        </mxCell>
        <mxCell id="09r9EQtUMxs82mxPDeLm-22" value="step 1" style="swimlane;strokeWidth=1;" vertex="1" parent="1">
          <mxGeometry x="-160" y="-37.5" width="500" height="497.5" as="geometry" />
        </mxCell>
      </root>
    </mxGraphModel>
  </diagram>
</mxfile>
